<mxfile host="Electron" modified="2023-10-08T09:24:44.464Z" agent="Mozilla/5.0 (Windows NT 10.0; Win64; x64) AppleWebKit/537.36 (KHTML, like Gecko) draw.io/22.0.2 Chrome/114.0.5735.289 Electron/25.8.4 Safari/537.36" etag="6H6FC48Vg0k3QuyNtNbQ" version="22.0.2" type="device">
  <diagram name="Page-1" id="P_Bg_5sYtUQsBlfg42rX">
    <mxGraphModel dx="1369" dy="1001" grid="1" gridSize="10" guides="1" tooltips="1" connect="1" arrows="1" fold="1" page="1" pageScale="1" pageWidth="850" pageHeight="1100" math="0" shadow="0">
      <root>
        <mxCell id="0" />
        <mxCell id="1" parent="0" />
        <mxCell id="vNGBHlvU4pFGImI2hJHZ-18" value="" style="rounded=0;whiteSpace=wrap;html=1;" vertex="1" parent="1">
          <mxGeometry x="40" y="40" width="790" height="530" as="geometry" />
        </mxCell>
        <mxCell id="vNGBHlvU4pFGImI2hJHZ-1" value="Home" style="rounded=0;whiteSpace=wrap;html=1;" vertex="1" parent="1">
          <mxGeometry x="372" y="74" width="120" height="60" as="geometry" />
        </mxCell>
        <mxCell id="vNGBHlvU4pFGImI2hJHZ-2" value="About Us" style="rounded=0;whiteSpace=wrap;html=1;" vertex="1" parent="1">
          <mxGeometry x="72" y="244" width="120" height="60" as="geometry" />
        </mxCell>
        <mxCell id="vNGBHlvU4pFGImI2hJHZ-3" value="Contact Us" style="rounded=0;whiteSpace=wrap;html=1;" vertex="1" parent="1">
          <mxGeometry x="222" y="244" width="120" height="60" as="geometry" />
        </mxCell>
        <mxCell id="vNGBHlvU4pFGImI2hJHZ-4" value="Login" style="rounded=0;whiteSpace=wrap;html=1;" vertex="1" parent="1">
          <mxGeometry x="372" y="244" width="120" height="60" as="geometry" />
        </mxCell>
        <mxCell id="vNGBHlvU4pFGImI2hJHZ-5" value="Account" style="rounded=0;whiteSpace=wrap;html=1;" vertex="1" parent="1">
          <mxGeometry x="522" y="244" width="120" height="60" as="geometry" />
        </mxCell>
        <mxCell id="vNGBHlvU4pFGImI2hJHZ-6" value="Registration" style="rounded=0;whiteSpace=wrap;html=1;" vertex="1" parent="1">
          <mxGeometry x="372" y="364" width="120" height="60" as="geometry" />
        </mxCell>
        <mxCell id="vNGBHlvU4pFGImI2hJHZ-7" value="Property" style="rounded=0;whiteSpace=wrap;html=1;" vertex="1" parent="1">
          <mxGeometry x="672" y="244" width="120" height="60" as="geometry" />
        </mxCell>
        <mxCell id="vNGBHlvU4pFGImI2hJHZ-8" value="Booking" style="rounded=0;whiteSpace=wrap;html=1;" vertex="1" parent="1">
          <mxGeometry x="672" y="364" width="120" height="60" as="geometry" />
        </mxCell>
        <mxCell id="vNGBHlvU4pFGImI2hJHZ-9" value="Payment" style="rounded=0;whiteSpace=wrap;html=1;" vertex="1" parent="1">
          <mxGeometry x="672" y="484" width="120" height="60" as="geometry" />
        </mxCell>
        <mxCell id="vNGBHlvU4pFGImI2hJHZ-10" value="" style="endArrow=none;html=1;rounded=0;entryX=0.5;entryY=1;entryDx=0;entryDy=0;exitX=0.5;exitY=0;exitDx=0;exitDy=0;startArrow=classic;startFill=1;" edge="1" parent="1" source="vNGBHlvU4pFGImI2hJHZ-4" target="vNGBHlvU4pFGImI2hJHZ-1">
          <mxGeometry width="50" height="50" relative="1" as="geometry">
            <mxPoint x="622" y="354" as="sourcePoint" />
            <mxPoint x="672" y="304" as="targetPoint" />
          </mxGeometry>
        </mxCell>
        <mxCell id="vNGBHlvU4pFGImI2hJHZ-11" value="" style="endArrow=none;html=1;rounded=0;exitX=0.5;exitY=0;exitDx=0;exitDy=0;startArrow=classic;startFill=1;" edge="1" parent="1" source="vNGBHlvU4pFGImI2hJHZ-2">
          <mxGeometry width="50" height="50" relative="1" as="geometry">
            <mxPoint x="442" y="254" as="sourcePoint" />
            <mxPoint x="432" y="194" as="targetPoint" />
            <Array as="points">
              <mxPoint x="132" y="194" />
            </Array>
          </mxGeometry>
        </mxCell>
        <mxCell id="vNGBHlvU4pFGImI2hJHZ-12" value="" style="endArrow=none;html=1;rounded=0;exitX=0.5;exitY=0;exitDx=0;exitDy=0;startArrow=classic;startFill=1;" edge="1" parent="1" source="vNGBHlvU4pFGImI2hJHZ-3">
          <mxGeometry width="50" height="50" relative="1" as="geometry">
            <mxPoint x="142" y="254" as="sourcePoint" />
            <mxPoint x="432" y="194" as="targetPoint" />
            <Array as="points">
              <mxPoint x="282" y="194" />
            </Array>
          </mxGeometry>
        </mxCell>
        <mxCell id="vNGBHlvU4pFGImI2hJHZ-13" value="" style="endArrow=none;html=1;rounded=0;exitX=0.5;exitY=0;exitDx=0;exitDy=0;startArrow=classic;startFill=1;" edge="1" parent="1" source="vNGBHlvU4pFGImI2hJHZ-5">
          <mxGeometry width="50" height="50" relative="1" as="geometry">
            <mxPoint x="292" y="254" as="sourcePoint" />
            <mxPoint x="432" y="194" as="targetPoint" />
            <Array as="points">
              <mxPoint x="582" y="194" />
            </Array>
          </mxGeometry>
        </mxCell>
        <mxCell id="vNGBHlvU4pFGImI2hJHZ-14" value="" style="endArrow=none;html=1;rounded=0;exitX=0.5;exitY=0;exitDx=0;exitDy=0;startArrow=classic;startFill=1;" edge="1" parent="1" source="vNGBHlvU4pFGImI2hJHZ-7">
          <mxGeometry width="50" height="50" relative="1" as="geometry">
            <mxPoint x="742" y="244" as="sourcePoint" />
            <mxPoint x="562" y="194" as="targetPoint" />
            <Array as="points">
              <mxPoint x="732" y="194" />
            </Array>
          </mxGeometry>
        </mxCell>
        <mxCell id="vNGBHlvU4pFGImI2hJHZ-15" value="" style="endArrow=none;html=1;rounded=0;exitX=0.5;exitY=0;exitDx=0;exitDy=0;startArrow=classic;startFill=1;entryX=0.5;entryY=1;entryDx=0;entryDy=0;" edge="1" parent="1" source="vNGBHlvU4pFGImI2hJHZ-6" target="vNGBHlvU4pFGImI2hJHZ-4">
          <mxGeometry width="50" height="50" relative="1" as="geometry">
            <mxPoint x="442" y="254" as="sourcePoint" />
            <mxPoint x="432" y="294" as="targetPoint" />
          </mxGeometry>
        </mxCell>
        <mxCell id="vNGBHlvU4pFGImI2hJHZ-16" value="" style="endArrow=none;html=1;rounded=0;exitX=0.5;exitY=0;exitDx=0;exitDy=0;startArrow=classic;startFill=1;entryX=0.5;entryY=1;entryDx=0;entryDy=0;" edge="1" parent="1" source="vNGBHlvU4pFGImI2hJHZ-8" target="vNGBHlvU4pFGImI2hJHZ-7">
          <mxGeometry width="50" height="50" relative="1" as="geometry">
            <mxPoint x="442" y="374" as="sourcePoint" />
            <mxPoint x="442" y="314" as="targetPoint" />
          </mxGeometry>
        </mxCell>
        <mxCell id="vNGBHlvU4pFGImI2hJHZ-17" value="" style="endArrow=none;html=1;rounded=0;exitX=0.5;exitY=0;exitDx=0;exitDy=0;startArrow=classic;startFill=1;entryX=0.5;entryY=1;entryDx=0;entryDy=0;" edge="1" parent="1" source="vNGBHlvU4pFGImI2hJHZ-9" target="vNGBHlvU4pFGImI2hJHZ-8">
          <mxGeometry width="50" height="50" relative="1" as="geometry">
            <mxPoint x="742" y="374" as="sourcePoint" />
            <mxPoint x="742" y="314" as="targetPoint" />
          </mxGeometry>
        </mxCell>
      </root>
    </mxGraphModel>
  </diagram>
</mxfile>
